<svg width="32" height="32" viewBox="0 0 32 32" xmlns="http://www.w3.org/2000/svg">
  <defs>
    <linearGradient id="grad1" x1="0%" y1="0%" x2="100%" y2="100%">
      <stop offset="0%" style="stop-color:#3B82F6;stop-opacity:1" />
      <stop offset="100%" style="stop-color:#1D4ED8;stop-opacity:1" />
    </linearGradient>
    <linearGradient id="grad2" x1="0%" y1="0%" x2="100%" y2="100%">
      <stop offset="0%" style="stop-color:#10B981;stop-opacity:1" />
      <stop offset="100%" style="stop-color:#059669;stop-opacity:1" />
    </linearGradient>
  </defs>
  
  <!-- Fond circulaire -->
  <circle cx="16" cy="16" r="15" fill="url(#grad1)" stroke="#1E40AF" stroke-width="1"/>
  
  <!-- Document PDF stylisé -->
  <rect x="8" y="6" width="16" height="20" rx="2" fill="white" stroke="#E5E7EB" stroke-width="1"/>
  
  <!-- Coin plié -->
  <path d="M 20 6 L 24 6 L 24 10 L 20 6 Z" fill="#F3F4F6"/>
  
  <!-- Lignes de texte -->
  <rect x="10" y="9" width="12" height="1" rx="0.5" fill="#6B7280"/>
  <rect x="10" y="11" width="10" height="1" rx="0.5" fill="#9CA3AF"/>
  <rect x="10" y="13" width="11" height="1" rx="0.5" fill="#9CA3AF"/>
  <rect x="10" y="15" width="9" height="1" rx="0.5" fill="#9CA3AF"/>
  <rect x="10" y="17" width="10" height="1" rx="0.5" fill="#9CA3AF"/>
  
  <!-- Icône de compression -->
  <circle cx="16" cy="22" r="3" fill="url(#grad2)"/>
  <path d="M 14 20 L 16 18 L 18 20 M 14 24 L 16 22 L 18 24" stroke="white" stroke-width="1" stroke-linecap="round"/>
</svg> 